# xmcd
#
# Track frame offsets: 
#        150
#        18113
#        23356
#        27107
#        32701
#        41330
#        45929
#        50708
#        55129
#        59708
#        64390
#        68569
#        73331
#        77910
#        82581
#        87280
#        91755
#        95427
#        99824
#        104180
#        109172
#        113725
#        118316
#        123103
#        127976
#        132646
#        137352
#        141511
#        146118
#        150258
#        155255
#        160083
#        165003
#        169650
#        174602
#        179243
#        184245
#        189172
#        194034
#        198391
#        203213
#        207792
#        212760
#        217716
#        222334
#        226294
#        231199
#        236152
#        240907
#        245789
#        250573
#        255063
#        259932
#        264645
#        269283
#        273639
#        278539
#        282832
#        286777
#        290633
#        298716
#        305691
#        318025
#        320273
#        322541
#        324747
#        330693
#
# Disc length: 4436 seconds
#
# Revision: 1
# Processed by: cddbd v1.5.2PL0 Copyright (c) Steve Scherf et al.
# Submitted via: ExactAudioCopyFreeDBPlugin 1.0
#
DISCID=c5115243
DTITLE=Radioshow Rastai (Algis Greitai ir Rimas Sapauskas) - Pirmas To
DTITLE=mas
DYEAR=2001
DGENRE=Country
TTITLE0=Papezejimas 1 (Song For Love)
TTITLE1=Papezejimas 2 (Gere gere daug bernelis, pasimaise jam protelis
TTITLE1=)
TTITLE2=Papezejimas 3 (Eurovision Is My Decision)
TTITLE3=Papezejimas 4
TTITLE4=Papezejimas 5
TTITLE5=Papezejimas 6
TTITLE6=Papezejimas 7
TTITLE7=Papezejimas 8
TTITLE8=Papezejimas 9
TTITLE9=Papezejimas 10
TTITLE10=Papezejimas 11
TTITLE11=Papezejimas 12
TTITLE12=Papezejimas 13
TTITLE13=Papezejimas 14
TTITLE14=Papezejimas 15
TTITLE15=Papezejimas 16
TTITLE16=Papezejimas 17
TTITLE17=Papezejimas 18
TTITLE18=Papezejimas 19
TTITLE19=Papezejimas 20
TTITLE20=Papezejimas 21
TTITLE21=Papezejimas 22
TTITLE22=Papezejimas 23
TTITLE23=Papezejimas 24
TTITLE24=Papezejimas 25
TTITLE25=Papezejimas 26
TTITLE26=Papezejimas 27
TTITLE27=Papezejimas 28
TTITLE28=Papezejimas 29
TTITLE29=Papezejimas 30
TTITLE30=Papezejimas 31
TTITLE31=Papezejimas 32
TTITLE32=Papezejimas 33
TTITLE33=Papezejimas 34
TTITLE34=Papezejimas 35
TTITLE35=Papezejimas 36
TTITLE36=Papezejimas 37
TTITLE37=Papezejimas 38
TTITLE38=Papezejimas 39
TTITLE39=Papezejimas 40
TTITLE40=Papezejimas 41
TTITLE41=Papezejimas 42
TTITLE42=Papezejimas 43
TTITLE43=Papezejimas 44
TTITLE44=Papezejimas 45
TTITLE45=Papezejimas 46
TTITLE46=Papezejimas 47
TTITLE47=Papezejimas 48
TTITLE48=Papezejimas 49
TTITLE49=Papezejimas 50
TTITLE50=Papezejimas 51
TTITLE51=Papezejimas 52
TTITLE52=Papezejimas 53
TTITLE53=Papezejimas 54
TTITLE54=Papezejimas 55
TTITLE55=Papezejimas 56
TTITLE56=Papezejimas 57
TTITLE57=Papezejimas 58
TTITLE58=Papezejimas 59
TTITLE59=Papezejimas 60
TTITLE60=Papezejimas 61
TTITLE61=Papezejimas 62 (Neparduosim zemes uzsenieciams)
TTITLE62=Papezejimas 63 (Jingles)
TTITLE63=Papezejimas 64 (Jingles)
TTITLE64=Papezejimas 65 (Jingles)
TTITLE65=Papezejimas 66 (Miniatiuros)
TTITLE66=Papezejimas 67 (Miniatiuros)
EXTD=
EXTT0=
EXTT1=
EXTT2=
EXTT3=
EXTT4=
EXTT5=
EXTT6=
EXTT7=
EXTT8=
EXTT9=
EXTT10=
EXTT11=
EXTT12=
EXTT13=
EXTT14=
EXTT15=
EXTT16=
EXTT17=
EXTT18=
EXTT19=
EXTT20=
EXTT21=
EXTT22=
EXTT23=
EXTT24=
EXTT25=
EXTT26=
EXTT27=
EXTT28=
EXTT29=
EXTT30=
EXTT31=
EXTT32=
EXTT33=
EXTT34=
EXTT35=
EXTT36=
EXTT37=
EXTT38=
EXTT39=
EXTT40=
EXTT41=
EXTT42=
EXTT43=
EXTT44=
EXTT45=
EXTT46=
EXTT47=
EXTT48=
EXTT49=
EXTT50=
EXTT51=
EXTT52=
EXTT53=
EXTT54=
EXTT55=
EXTT56=
EXTT57=
EXTT58=
EXTT59=
EXTT60=
EXTT61=
EXTT62=
EXTT63=
EXTT64=
EXTT65=
EXTT66=
PLAYORDER=
